<svg width="158" height="84" viewBox="0 0 158 84" fill="none" xmlns="http://www.w3.org/2000/svg">
<path d="M10.9773 48.0682V63H2.64205V28.0909H10.7045V41.625H10.9943C11.5852 40.0114 12.5511 38.75 13.892 37.8409C15.2443 36.9318 16.8977 36.4773 18.8523 36.4773C20.6932 36.4773 22.2955 36.8864 23.6591 37.7045C25.0227 38.5114 26.0795 39.6534 26.8295 41.1307C27.5909 42.608 27.9659 44.3352 27.9545 46.3125V63H19.6193V47.9489C19.6307 46.4943 19.267 45.358 18.5284 44.5398C17.7898 43.7216 16.75 43.3125 15.4091 43.3125C14.5341 43.3125 13.7614 43.5057 13.0909 43.892C12.4318 44.267 11.9148 44.8068 11.5398 45.5114C11.1761 46.2159 10.9886 47.0682 10.9773 48.0682ZM40.5384 63.4432C38.8679 63.4432 37.3849 63.1648 36.0895 62.608C34.8054 62.0398 33.7884 61.1875 33.0384 60.0511C32.2997 58.9034 31.9304 57.4659 31.9304 55.7386C31.9304 54.2841 32.1861 53.0568 32.6974 52.0568C33.2088 51.0568 33.9134 50.2443 34.8111 49.6193C35.7088 48.9943 36.7429 48.5227 37.9134 48.2045C39.0838 47.875 40.3338 47.6534 41.6634 47.5398C43.152 47.4034 44.3509 47.2614 45.2599 47.1136C46.169 46.9545 46.8281 46.733 47.2372 46.4489C47.6577 46.1534 47.8679 45.7386 47.8679 45.2045V45.1193C47.8679 44.2443 47.5668 43.5682 46.9645 43.0909C46.3622 42.6136 45.5497 42.375 44.527 42.375C43.4247 42.375 42.5384 42.6136 41.8679 43.0909C41.1974 43.5682 40.7713 44.2273 40.5895 45.0682L32.902 44.7955C33.1293 43.2045 33.7145 41.7841 34.6577 40.5341C35.6122 39.2727 36.919 38.2841 38.5781 37.5682C40.2486 36.8409 42.2543 36.4773 44.5952 36.4773C46.2656 36.4773 47.8054 36.6761 49.2145 37.0739C50.6236 37.4602 51.8509 38.0284 52.8963 38.7784C53.9418 39.517 54.7486 40.4261 55.3168 41.5057C55.8963 42.5852 56.1861 43.8182 56.1861 45.2045V63H48.3452V59.3523H48.1406C47.6747 60.2386 47.0781 60.9886 46.3509 61.6023C45.6349 62.2159 44.7884 62.6761 43.8111 62.983C42.8452 63.2898 41.7543 63.4432 40.5384 63.4432ZM43.1122 57.9886C44.0099 57.9886 44.8168 57.8068 45.5327 57.4432C46.2599 57.0795 46.8395 56.5795 47.2713 55.9432C47.7031 55.2955 47.919 54.5455 47.919 53.6932V51.2045C47.6804 51.3295 47.3906 51.4432 47.0497 51.5455C46.7202 51.6477 46.3565 51.7443 45.9588 51.8352C45.5611 51.9261 45.152 52.0057 44.7315 52.0739C44.3111 52.142 43.9077 52.2045 43.5213 52.2614C42.7372 52.3864 42.0668 52.5795 41.5099 52.8409C40.9645 53.1023 40.544 53.4432 40.2486 53.8636C39.9645 54.2727 39.8224 54.7614 39.8224 55.3295C39.8224 56.1932 40.1293 56.8523 40.7429 57.3068C41.3679 57.7614 42.1577 57.9886 43.1122 57.9886ZM61.2827 63V28.0909H69.6179V41.3011H69.7884C70.1293 40.5057 70.6122 39.7386 71.2372 39C71.8736 38.2614 72.6804 37.6591 73.6577 37.1932C74.6463 36.7159 75.8281 36.4773 77.2031 36.4773C79.0213 36.4773 80.7202 36.9545 82.2997 37.9091C83.8906 38.8636 85.1747 40.3352 86.152 42.3239C87.1293 44.3125 87.6179 46.8466 87.6179 49.9261C87.6179 52.892 87.1463 55.375 86.2031 57.375C85.2713 59.375 84.0099 60.875 82.419 61.875C80.8395 62.875 79.0838 63.375 77.152 63.375C75.8338 63.375 74.6918 63.1591 73.7259 62.7273C72.7599 62.2955 71.9474 61.7273 71.2884 61.0227C70.6406 60.3182 70.1406 59.5625 69.7884 58.7557H69.5327V63H61.2827ZM69.4474 49.9091C69.4474 51.3182 69.6349 52.5455 70.0099 53.5909C70.3963 54.6364 70.9474 55.4489 71.6634 56.0284C72.3906 56.5966 73.2599 56.8807 74.2713 56.8807C75.294 56.8807 76.1634 56.5966 76.8793 56.0284C77.5952 55.4489 78.1349 54.6364 78.4986 53.5909C78.8736 52.5455 79.0611 51.3182 79.0611 49.9091C79.0611 48.5 78.8736 47.2784 78.4986 46.2443C78.1349 45.2102 77.5952 44.4091 76.8793 43.8409C76.1747 43.2727 75.3054 42.9886 74.2713 42.9886C73.2486 42.9886 72.3793 43.267 71.6634 43.8239C70.9474 44.3807 70.3963 45.1761 70.0099 46.2102C69.6349 47.2443 69.4474 48.4773 69.4474 49.9091ZM91.9858 63V36.8182H100.321V63H91.9858ZM96.1619 33.767C94.9915 33.767 93.9858 33.3807 93.1449 32.608C92.304 31.8239 91.8835 30.8807 91.8835 29.7784C91.8835 28.6875 92.304 27.7557 93.1449 26.983C93.9858 26.1989 94.9915 25.8068 96.1619 25.8068C97.3438 25.8068 98.3494 26.1989 99.179 26.983C100.02 27.7557 100.44 28.6875 100.44 29.7784C100.44 30.8807 100.02 31.8239 99.179 32.608C98.3494 33.3807 97.3438 33.767 96.1619 33.767ZM120.405 36.8182V42.9545H103.888V36.8182H120.405ZM107.348 30.5455H115.683V54.767C115.683 55.2784 115.763 55.6932 115.922 56.0114C116.092 56.3182 116.337 56.5398 116.655 56.6761C116.973 56.8011 117.354 56.8636 117.797 56.8636C118.115 56.8636 118.45 56.8352 118.803 56.7784C119.166 56.7102 119.439 56.6534 119.621 56.608L120.882 62.625C120.484 62.7386 119.922 62.8807 119.195 63.0511C118.479 63.2216 117.621 63.3295 116.621 63.375C114.666 63.4659 112.99 63.2386 111.592 62.6932C110.206 62.1364 109.143 61.2727 108.405 60.1023C107.678 58.9318 107.325 57.4602 107.348 55.6875V30.5455ZM147.188 44.8125L139.534 45.017C139.455 44.4716 139.239 43.9886 138.886 43.5682C138.534 43.1364 138.074 42.8011 137.506 42.5625C136.949 42.3125 136.301 42.1875 135.562 42.1875C134.597 42.1875 133.773 42.3807 133.091 42.767C132.42 43.1534 132.091 43.6761 132.102 44.3352C132.091 44.8466 132.295 45.2898 132.716 45.6648C133.148 46.0398 133.915 46.3409 135.017 46.5682L140.062 47.5227C142.676 48.0227 144.619 48.8523 145.892 50.0114C147.176 51.1705 147.824 52.7045 147.835 54.6136C147.824 56.4091 147.29 57.9716 146.233 59.3011C145.188 60.6307 143.756 61.6648 141.938 62.4034C140.119 63.1307 138.04 63.4943 135.699 63.4943C131.96 63.4943 129.011 62.7273 126.852 61.1932C124.705 59.6477 123.477 57.5795 123.17 54.9886L131.403 54.7841C131.585 55.7386 132.057 56.4659 132.818 56.9659C133.58 57.4659 134.551 57.7159 135.733 57.7159C136.801 57.7159 137.67 57.517 138.341 57.1193C139.011 56.7216 139.352 56.1932 139.364 55.5341C139.352 54.9432 139.091 54.4716 138.58 54.1193C138.068 53.7557 137.267 53.4716 136.176 53.267L131.608 52.3977C128.983 51.9205 127.028 51.0398 125.744 49.7557C124.46 48.4602 123.824 46.8125 123.835 44.8125C123.824 43.0625 124.29 41.5682 125.233 40.3295C126.176 39.0795 127.517 38.125 129.256 37.4659C130.994 36.8068 133.045 36.4773 135.409 36.4773C138.955 36.4773 141.75 37.2216 143.795 38.7102C145.841 40.1875 146.972 42.2216 147.188 44.8125Z" fill="white"/>
<rect x="0.5" y="0.5" width="15" height="15" rx="3.5" fill="#18181B" stroke="#27272A"/>
<rect x="20.5" y="0.5" width="15" height="15" rx="3.5" fill="#4C1D95" stroke="#6D28D9"/>
<rect x="40.5" y="0.5" width="15" height="15" rx="3.5" fill="#5B21B6" stroke="#7C3AED"/>
<rect x="60.5" y="0.5" width="15" height="15" rx="3.5" fill="#6D28D9" stroke="#8B5CF6"/>
<rect x="80.5" y="0.5" width="15" height="15" rx="3.5" fill="#7C3AED" stroke="#A78BFA"/>
<rect x="100.5" y="0.5" width="15" height="15" rx="3.5" fill="#8B5CF6" stroke="#C4B5FD"/>
</svg>
